<svg width="32" height="32" viewBox="0 0 32 32" fill="none" xmlns="http://www.w3.org/2000/svg">
<circle cx="16" cy="16" r="16" fill="#ECEFF3"/>
<g clip-path="url(#clip0_6852_97588)">
<path d="M15.9987 9.33398C14.1895 9.33398 13.962 9.34232 13.2512 9.37398C12.5404 9.40732 12.0562 9.51898 11.632 9.68398C11.1871 9.85133 10.7841 10.1138 10.4512 10.4532C10.1121 10.7862 9.84962 11.1892 9.68203 11.634C9.51703 12.0573 9.40453 12.5423 9.37203 13.2507C9.34036 13.9632 9.33203 14.1898 9.33203 16.0015C9.33203 17.8115 9.34036 18.0382 9.37203 18.749C9.40536 19.459 9.51703 19.9432 9.68203 20.3673C9.85286 20.8057 10.0804 21.1773 10.4512 21.5482C10.8212 21.919 11.1929 22.1473 11.6312 22.3173C12.0562 22.4823 12.5395 22.5948 13.2495 22.6273C13.9612 22.659 14.1879 22.6673 15.9987 22.6673C17.8095 22.6673 18.0354 22.659 18.747 22.6273C19.4562 22.594 19.942 22.4823 20.3662 22.3173C20.8108 22.1499 21.2135 21.8874 21.5462 21.5482C21.917 21.1773 22.1445 20.8057 22.3154 20.3673C22.4795 19.9432 22.592 19.459 22.6254 18.749C22.657 18.0382 22.6654 17.8115 22.6654 16.0007C22.6654 14.1898 22.657 13.9632 22.6254 13.2515C22.592 12.5423 22.4795 12.0573 22.3154 11.634C22.1478 11.1892 21.8853 10.7862 21.5462 10.4532C21.2134 10.1137 20.8104 9.85119 20.3654 9.68398C19.9404 9.51898 19.4554 9.40648 18.7462 9.37398C18.0345 9.34232 17.8087 9.33398 15.997 9.33398H15.9995H15.9987ZM15.4012 10.5357H15.9995C17.7795 10.5357 17.9904 10.5415 18.6929 10.574C19.3429 10.6032 19.6962 10.7123 19.9312 10.8032C20.242 10.924 20.4645 11.069 20.6979 11.3023C20.9312 11.5357 21.0754 11.7573 21.1962 12.069C21.2879 12.3032 21.3962 12.6565 21.4254 13.3065C21.4579 14.009 21.4645 14.2198 21.4645 15.999C21.4645 17.7782 21.4579 17.9898 21.4254 18.6923C21.3962 19.3423 21.287 19.6948 21.1962 19.9298C21.0893 20.2193 20.9187 20.481 20.697 20.6957C20.4637 20.929 20.242 21.0732 19.9304 21.194C19.697 21.2857 19.3437 21.394 18.6929 21.424C17.9904 21.4557 17.7795 21.4632 15.9995 21.4632C14.2195 21.4632 14.0079 21.4557 13.3054 21.424C12.6554 21.394 12.3029 21.2857 12.0679 21.194C11.7783 21.0873 11.5163 20.917 11.3012 20.6957C11.0793 20.4807 10.9085 20.2187 10.8012 19.929C10.7104 19.6948 10.6012 19.3415 10.572 18.6915C10.5404 17.989 10.5337 17.7782 10.5337 15.9973C10.5337 14.2173 10.5404 14.0073 10.572 13.3048C10.602 12.6548 10.7104 12.3015 10.802 12.0665C10.9229 11.7557 11.0679 11.5332 11.3012 11.2998C11.5345 11.0665 11.7562 10.9223 12.0679 10.8015C12.3029 10.7098 12.6554 10.6015 13.3054 10.5715C13.9204 10.5432 14.1587 10.5348 15.4012 10.534V10.5357ZM19.5579 11.6423C19.4528 11.6423 19.3488 11.663 19.2517 11.7032C19.1547 11.7434 19.0665 11.8023 18.9922 11.8766C18.9179 11.9509 18.859 12.0391 18.8188 12.1362C18.7786 12.2332 18.7579 12.3373 18.7579 12.4423C18.7579 12.5474 18.7786 12.6514 18.8188 12.7485C18.859 12.8455 18.9179 12.9337 18.9922 13.008C19.0665 13.0823 19.1547 13.1412 19.2517 13.1814C19.3488 13.2216 19.4528 13.2423 19.5579 13.2423C19.77 13.2423 19.9735 13.158 20.1235 13.008C20.2736 12.858 20.3579 12.6545 20.3579 12.4423C20.3579 12.2301 20.2736 12.0267 20.1235 11.8766C19.9735 11.7266 19.77 11.6423 19.5579 11.6423ZM15.9995 12.5773C15.5454 12.5702 15.0944 12.6536 14.6728 12.8224C14.2512 12.9913 13.8675 13.2424 13.5438 13.561C13.2202 13.8796 12.9632 14.2595 12.7877 14.6784C12.6123 15.0973 12.5219 15.5469 12.5219 16.0011C12.5219 16.4552 12.6123 16.9049 12.7877 17.3238C12.9632 17.7427 13.2202 18.1225 13.5438 18.4411C13.8675 18.7598 14.2512 19.0108 14.6728 19.1797C15.0944 19.3486 15.5454 19.4319 15.9995 19.4248C16.8983 19.4108 17.7555 19.0439 18.3862 18.4034C19.0168 17.7628 19.3703 16.9 19.3703 16.0011C19.3703 15.1022 19.0168 14.2393 18.3862 13.5988C17.7555 12.9582 16.8983 12.5913 15.9995 12.5773ZM15.9995 13.7782C16.589 13.7782 17.1543 14.0123 17.5711 14.4291C17.9879 14.8459 18.222 15.4112 18.222 16.0007C18.222 16.5901 17.9879 17.1554 17.5711 17.5722C17.1543 17.989 16.589 18.2232 15.9995 18.2232C15.4101 18.2232 14.8448 17.989 14.428 17.5722C14.0112 17.1554 13.777 16.5901 13.777 16.0007C13.777 15.4112 14.0112 14.8459 14.428 14.4291C14.8448 14.0123 15.4101 13.7782 15.9995 13.7782Z" fill="black"/>
</g>
<defs>
<clipPath id="clip0_6852_97588">
<rect width="13.3333" height="13.3333" fill="white" transform="translate(9.33203 9.33398)"/>
</clipPath>
</defs>
</svg>
