<svg width="32" height="32" viewBox="0 0 32 32" fill="none" xmlns="http://www.w3.org/2000/svg">
<circle cx="16" cy="16" r="16" fill="#ECEFF3"/>
<path d="M11.3219 12.7982C12.1275 12.7982 12.7806 12.1451 12.7806 11.3395C12.7806 10.5339 12.1275 9.88086 11.3219 9.88086C10.5163 9.88086 9.86328 10.5339 9.86328 11.3395C9.86328 12.1451 10.5163 12.7982 11.3219 12.7982Z" fill="black"/>
<path d="M14.1572 13.9031V21.9958H16.6698V17.9938C16.6698 16.9378 16.8685 15.9151 18.1778 15.9151C19.4692 15.9151 19.4852 17.1225 19.4852 18.0605V21.9965H21.9992V17.5585C21.9992 15.3785 21.5298 13.7031 18.9818 13.7031C17.7585 13.7031 16.9385 14.3745 16.6032 15.0098H16.5692V13.9031H14.1572ZM10.0625 13.9031H12.5792V21.9958H10.0625V13.9031Z" fill="black"/>
</svg>
