<svg width="32" height="32" viewBox="0 0 32 32" fill="none" xmlns="http://www.w3.org/2000/svg">
<circle cx="16" cy="16" r="16" fill="#ECEFF3"/>
<g clip-path="url(#clip0_6852_97583)">
<path d="M22.466 12.0768C22.0021 12.2823 21.5038 12.4212 20.9799 12.484C21.5205 12.1605 21.9249 11.6515 22.1177 11.0518C21.6098 11.3534 21.054 11.5657 20.4743 11.6795C20.0846 11.2633 19.5683 10.9875 19.0056 10.8948C18.443 10.8021 17.8655 10.8977 17.3628 11.1669C16.8601 11.436 16.4603 11.8636 16.2255 12.3833C15.9907 12.9029 15.9341 13.4855 16.0643 14.0406C15.0353 13.989 14.0286 13.7215 13.1096 13.2556C12.1906 12.7897 11.3798 12.1357 10.7299 11.3362C10.5077 11.7195 10.3799 12.164 10.3799 12.6373C10.3796 13.0634 10.4846 13.483 10.6854 13.8588C10.8862 14.2347 11.1767 14.5551 11.531 14.7918C11.12 14.7787 10.7182 14.6676 10.3588 14.4679V14.5012C10.3587 15.0988 10.5655 15.6781 10.9439 16.1406C11.3223 16.6032 11.8491 16.9206 12.4349 17.039C12.0537 17.1421 11.654 17.1573 11.266 17.0834C11.4313 17.5976 11.7532 18.0473 12.1868 18.3695C12.6203 18.6917 13.1437 18.8702 13.6838 18.8801C12.767 19.5998 11.6348 19.9901 10.4693 19.9884C10.2629 19.9885 10.0566 19.9764 9.85156 19.9523C11.0346 20.713 12.4118 21.1166 13.8182 21.1151C18.5793 21.1151 21.1821 17.1717 21.1821 13.7518C21.1821 13.6406 21.1793 13.5284 21.1743 13.4173C21.6806 13.0512 22.1176 12.5978 22.4649 12.0784L22.466 12.0768Z" fill="black"/>
</g>
<defs>
<clipPath id="clip0_6852_97583">
<rect width="13.3333" height="13.3333" fill="white" transform="translate(9.33203 9.33398)"/>
</clipPath>
</defs>
</svg>
