<svg width="32" height="32" viewBox="0 0 32 32" fill="none" xmlns="http://www.w3.org/2000/svg">
<circle cx="16" cy="16" r="16" fill="#ECEFF3"/>
<g clip-path="url(#clip0_6852_97578)">
<path d="M16.0412 11H16.1154C16.8004 11.0025 20.2712 11.0275 21.207 11.2792C21.4899 11.356 21.7477 11.5057 21.9547 11.7133C22.1616 11.921 22.3104 12.1793 22.3862 12.4625C22.4704 12.7792 22.5295 13.1983 22.5695 13.6308L22.5779 13.7175L22.5962 13.9342L22.6029 14.0208C22.657 14.7825 22.6637 15.4958 22.6645 15.6517V15.7142C22.6637 15.8758 22.6562 16.6375 22.5962 17.4308L22.5895 17.5183L22.582 17.605C22.5404 18.0817 22.4787 18.555 22.3862 18.9033C22.3106 19.1866 22.1619 19.4451 21.9549 19.6528C21.748 19.8605 21.4901 20.0101 21.207 20.0867C20.2404 20.3467 16.5662 20.365 16.057 20.3658H15.9387C15.6812 20.3658 14.6162 20.3608 13.4995 20.3225L13.3579 20.3175L13.2854 20.3142L13.1429 20.3083L13.0004 20.3025C12.0754 20.2617 11.1945 20.1958 10.7887 20.0858C10.5058 20.0093 10.2479 19.8598 10.041 19.6523C9.83402 19.4447 9.68524 19.1865 9.60953 18.9033C9.51703 18.5558 9.45536 18.0817 9.4137 17.605L9.40703 17.5175L9.40036 17.4308C9.35924 16.8662 9.33645 16.3003 9.33203 15.7342L9.33203 15.6317C9.3337 15.4525 9.34036 14.8333 9.38536 14.15L9.3912 14.0642L9.3937 14.0208L9.40036 13.9342L9.4187 13.7175L9.42703 13.6308C9.46703 13.1983 9.5262 12.7783 9.61036 12.4625C9.68594 12.1792 9.83467 11.9208 10.0416 11.7131C10.2486 11.5054 10.5065 11.3557 10.7895 11.2792C11.1954 11.1708 12.0762 11.1042 13.0012 11.0625L13.1429 11.0567L13.2862 11.0517L13.3579 11.0492L13.5004 11.0433C14.2935 11.0178 15.0869 11.0036 15.8804 11.0008H16.0412V11ZM14.6654 13.675V17.69L18.1295 15.6833L14.6654 13.675Z" fill="black"/>
</g>
<defs>
<clipPath id="clip0_6852_97578">
<rect width="13.3333" height="13.3333" fill="white" transform="translate(9.33203 9.33398)"/>
</clipPath>
</defs>
</svg>
