<svg width="16" height="16" viewBox="0 0 20 20" fill="none" xmlns="http://www.w3.org/2000/svg"><path fill-rule="evenodd" clip-rule="evenodd" d="M10.759 10.4244L15.7381 5.44525C16.3318 4.85158 17.2943 4.85158 17.888 5.44525V5.44525C18.4817 6.03892 18.4817 7.00145 17.888 7.59512L12.9088 12.5743C12.5901 12.893 12.1765 13.0998 11.7303 13.1635L10.5784 13.3281C10.4205 13.3507 10.2612 13.2976 10.1484 13.1848C10.0356 13.072 9.98253 12.9127 10.0051 12.7548L10.1697 11.6029C10.2334 11.1567 10.4402 10.7431 10.759 10.4244V10.4244Z" stroke="#627984" stroke-width="1.25" stroke-linecap="round" stroke-linejoin="round"></path><path d="M7.49967 13.3333H5.83301" stroke="#627984" stroke-width="1.25" stroke-linecap="round" stroke-linejoin="round"></path><path d="M7.49967 10.4167H5.83301" stroke="#627984" stroke-width="1.25" stroke-linecap="round" stroke-linejoin="round"></path><path d="M9.99967 7.50004H5.83301" stroke="#627984" stroke-width="1.25" stroke-linecap="round" stroke-linejoin="round"></path><path d="M15.8333 5.35819V4.16667C15.8333 3.24619 15.0871 2.5 14.1667 2.5H4.16667C3.24619 2.5 2.5 3.24619 2.5 4.16667V15.8333C2.5 16.7538 3.24619 17.5 4.16667 17.5H14.1667C15.0871 17.5 15.8333 16.7538 15.8333 15.8333V9.64986" stroke="#627984" stroke-width="1.25" stroke-linecap="round" stroke-linejoin="round"></path></svg>